<svg id="visual" viewBox="0 0 900 600" width="900" height="600" xmlns="http://www.w3.org/2000/svg" xmlns:xlink="http://www.w3.org/1999/xlink" version="1.1"><rect x="0" y="0" width="900" height="600" fill="#002233"></rect><path d="M0 495L21.5 496.8C43 498.7 86 502.3 128.8 505C171.7 507.7 214.3 509.3 257.2 487.7C300 466 343 421 385.8 401.2C428.7 381.3 471.3 386.7 514.2 403C557 419.3 600 446.7 642.8 451.7C685.7 456.7 728.3 439.3 771.2 440C814 440.7 857 459.3 878.5 468.7L900 478L900 601L878.5 601C857 601 814 601 771.2 601C728.3 601 685.7 601 642.8 601C600 601 557 601 514.2 601C471.3 601 428.7 601 385.8 601C343 601 300 601 257.2 601C214.3 601 171.7 601 128.8 601C86 601 43 601 21.5 601L0 601Z" fill="#0066FF" stroke-linecap="round" stroke-linejoin="miter"></path></svg>